<?xml version="1.0" encoding="UTF-8"?>
<svg version="1.1" xmlns="http://www.w3.org/2000/svg" width="500" height="500">
<path d="M0 0 C0 0.66 0 1.32 0 2 C0.87785156 2.40605469 0.87785156 2.40605469 1.7734375 2.8203125 C13.95502339 9.2744159 22.72382396 22.71863076 28 35 C28.3815625 35.87785156 28.763125 36.75570312 29.15625 37.66015625 C30 40 30 40 30 43 C30.85078125 43.10054687 31.7015625 43.20109375 32.578125 43.3046875 C42.04967954 45.22927278 52.752008 51.67053233 60 58 C60 58.66 60 59.32 60 60 C60.66 60 61.32 60 62 60 C62 60.66 62 61.32 62 62 C62.66 62 63.32 62 64 62 C75.14310505 74.36884661 81.53299462 89.4603102 82.375 106.125 C81.09631337 119.33809522 77.07750842 129.93335905 67.34765625 139.17578125 C58.53506618 146.02350098 49.72165819 148.0533234 38.90086365 148.5524292 C37.57519273 148.61553949 37.57519273 148.61553949 36.22274059 148.67992473 C27.00999173 149.08910804 17.80652663 149.15558576 8.58618164 149.16113281 C6.74227809 149.16577919 4.89837546 149.17080617 3.05447388 149.17617798 C-1.88513944 149.18911271 -6.82473932 149.19570693 -11.76436687 149.20018864 C-14.86082746 149.20314503 -17.95728456 149.20725387 -21.05374336 149.21169281 C-30.77400597 149.22530592 -40.49426038 149.23500758 -50.21453184 149.2388947 C-61.38002434 149.24338709 -72.54539515 149.26101562 -83.71085066 149.2898953 C-92.38824551 149.31155197 -101.06560617 149.32160079 -109.74302775 149.32293582 C-114.90699491 149.32397921 -120.07084669 149.3297897 -125.23478508 149.34775543 C-130.08511607 149.36430979 -134.93524565 149.36635613 -139.78559494 149.35761642 C-141.55558248 149.3568505 -143.32558124 149.36112944 -145.095541 149.37107468 C-161.53234557 149.45795991 -175.58728905 147.88873151 -188.25 136.375 C-197.55559334 126.54196412 -200.46370509 114.63277789 -200.25390625 101.52734375 C-199.88432927 96.39306662 -198.69914214 91.84109031 -197 87 C-196.7215625 86.15824219 -196.443125 85.31648438 -196.15625 84.44921875 C-193.78241208 77.87000417 -190.21199144 72.54726145 -186 67 C-185.236875 65.96875 -184.47375 64.9375 -183.6875 63.875 C-183.130625 63.25625 -182.57375 62.6375 -182 62 C-181.34 62 -180.68 62 -180 62 C-180 61.34 -180 60.68 -180 60 C-179.34 60 -178.68 60 -178 60 C-178 59.34 -178 58.68 -178 58 C-175.94694503 56.45413464 -173.91525774 55.06038468 -171.75 53.6875 C-170.80133057 53.0699585 -170.80133057 53.0699585 -169.83349609 52.43994141 C-165.85792234 49.92721957 -162.13996944 48.27798923 -157.625 46.875 C-150.10151447 44.01367439 -147.97625423 37.67808851 -144.83642578 30.77392578 C-141.06399408 22.77319936 -135.00871831 16.36879132 -129 10 C-128.195625 9.13375 -127.39125 8.2675 -126.5625 7.375 C-92.64284121 -24.06273253 -37.6084576 -27.37151208 0 0 Z M-98 16 C-100.71579044 19.46497401 -101.82416499 22.60412474 -102 27 C-100.40650019 32.1346105 -98.63279305 35.1987763 -94 38 C-89.36902933 39.37943807 -86.38893463 38.96101334 -82 37 C-78.68492879 34.73972417 -76.25380729 32.87540435 -75 29 C-74.64010413 24.77122353 -75.19693768 21.83150744 -77 18 C-77.66 18 -78.32 18 -79 18 C-79 17.34 -79 16.68 -79 16 C-85.74764588 12.05015851 -91.33883898 11.60968933 -98 16 Z M-48 52 C-50.50031654 55.75047482 -50.53603554 57.55856266 -50 62 C-47.74140387 64.96844063 -46.04972679 66.59625893 -42.5625 67.9375 C-39.28222126 68.0175068 -36.99105204 67.32935646 -34 66 C-31.31960754 61.97941131 -31.31671968 58.72317518 -32 54 C-34.01385876 50.90175575 -35.38347812 50.20103974 -38.875 49.0625 C-42.74726087 48.98505478 -44.75468914 49.93480218 -48 52 Z M-134 72.25 C-135.72130984 76.98360207 -135.81869974 81.10406375 -133.8125 85.75 C-130.03287755 90.48153265 -130.03287755 90.48153265 -124.40625 92.38671875 C-119.9024533 92.56226997 -116.89890669 92.51366097 -112.9375 90.25 C-109.13093964 85.82947829 -108.49869451 82.2150089 -108.6171875 76.4765625 C-109.25703827 72.33711975 -110.88507519 70.76882206 -114 68 C-121.23757096 64.01933597 -128.64583372 66.22656294 -134 72.25 Z " fill="#3C2C1D" transform="translate(308,128)"/>
<path d="M0 0 C0.94470657 -0.01283524 1.88941315 -0.02567047 2.86274719 -0.03889465 C3.88668076 -0.04628159 4.91061432 -0.05366852 5.96557617 -0.0612793 C7.01629807 -0.06935104 8.06701996 -0.07742279 9.14958191 -0.08573914 C11.37639716 -0.09958619 13.60323369 -0.11030555 15.83007812 -0.11816406 C19.23437768 -0.13537586 22.63770602 -0.17925718 26.04174805 -0.22338867 C28.20385027 -0.2335155 30.36596076 -0.24203163 32.52807617 -0.2487793 C34.05486748 -0.27504143 34.05486748 -0.27504143 35.61250305 -0.30183411 C39.86121339 -0.2888071 42.69667286 -0.2174675 46.49780273 1.78344727 C48.92759344 4.7686187 49.65668872 7.15430169 50.53588867 10.8996582 C50.69451889 11.55579605 50.85314911 12.2119339 51.0165863 12.88795471 C51.51496402 14.97992181 51.98334699 17.07687858 52.44604492 19.17700195 C52.59841614 19.849953 52.75078735 20.52290405 52.90777588 21.21624756 C53.83451729 25.31270964 54.7169219 29.41718702 55.57373047 33.52880859 C56.00782997 35.6110725 56.44812152 37.69195289 56.8894043 39.77270508 C58.62652593 48.00641014 60.24039921 56.25714911 61.76416016 64.53295898 C63.18146447 72.96873332 63.18146447 72.96873332 65.44604492 81.17700195 C69.15883567 82.41459887 72.64048268 82.39964165 76.50854492 82.42700195 C77.24137695 82.44762695 77.97420898 82.46825195 78.72924805 82.48950195 C81.10395627 82.54180869 81.10395627 82.54180869 84.44604492 82.17700195 C86.81765483 78.61958709 86.64200887 77.31759233 86.48950195 73.12011719 C86.44930939 71.87129257 86.40911682 70.62246796 86.3677063 69.33580017 C86.31325412 67.9690588 86.25863353 66.60232413 86.20385742 65.2355957 C86.15519693 63.82897682 86.1075128 62.42232386 86.0607605 61.01564026 C85.93504372 57.30536748 85.7970714 53.59565166 85.65625 49.88592529 C85.48839373 45.41116094 85.33371308 40.93592703 85.17826653 36.4607172 C85.05694621 32.97059087 84.93336743 29.4806037 84.80227661 25.99082947 C84.67040763 22.38648209 84.55303674 18.78216544 84.44604492 15.17700195 C84.39574127 13.68960007 84.39574127 13.68960007 84.34442139 12.17214966 C84.32623352 11.28953461 84.30804565 10.40691956 84.28930664 9.49755859 C84.26137527 8.37626305 84.26137527 8.37626305 84.23287964 7.23231506 C84.48446197 4.80658953 85.16175949 3.24123169 86.44604492 1.17700195 C90.43412585 -0.81703851 95.43600019 -0.09558563 99.82104492 -0.13549805 C101.40272461 -0.17900391 101.40272461 -0.17900391 103.01635742 -0.22338867 C104.03213867 -0.23176758 105.04791992 -0.24014648 106.09448242 -0.2487793 C107.02437988 -0.26336182 107.95427734 -0.27794434 108.91235352 -0.29296875 C112.2756262 0.33087977 113.42759853 1.448561 115.44604492 4.17700195 C115.91601562 6.54174805 115.91601562 6.54174805 115.87182617 9.20043945 C115.8640918 10.20631104 115.85635742 11.21218262 115.84838867 12.24853516 C115.80391602 13.88375122 115.80391602 13.88375122 115.75854492 15.55200195 C115.74307617 16.69306396 115.72760742 17.83412598 115.71166992 19.00976562 C115.54775483 29.10488659 115.17624555 39.19721657 114.80712891 49.28662109 C114.52845593 57.02219847 114.33725457 64.74871969 114.32104492 72.48950195 C114.3165332 73.36711182 114.31202148 74.24472168 114.30737305 75.14892578 C113.94654036 78.9715003 113.94654036 78.9715003 115.44604492 82.17700195 C118.08351248 82.30386001 120.68313658 82.36220812 123.32104492 82.36450195 C124.05452148 82.37674805 124.78799805 82.38899414 125.54370117 82.40161133 C129.38168007 82.41209761 131.17951567 82.35468812 134.44604492 80.17700195 C135.21683219 77.85999569 135.78562998 75.69225023 136.28588867 73.3137207 C136.44983627 72.57747971 136.61378387 71.84123871 136.78269958 71.08268738 C139.67869981 57.84005375 142.1753836 44.50419067 144.73974609 31.19433594 C145.44787567 27.5268376 146.16685294 23.86159904 146.88745117 20.1965332 C147.10003067 19.07777298 147.31261017 17.95901276 147.53163147 16.80635071 C149.5817993 6.45292091 149.5817993 6.45292091 152.44604492 2.17700195 C155.43771852 0.29542931 157.75624458 -0.07832479 161.25878906 -0.09765625 C162.20979996 -0.10718826 163.16081085 -0.11672028 164.14064026 -0.12654114 C165.16052536 -0.12562973 166.18041046 -0.12471832 167.23120117 -0.1237793 C168.81015419 -0.13020699 168.81015419 -0.13020699 170.42100525 -0.13676453 C172.64426962 -0.14250338 174.86755277 -0.14301137 177.09082031 -0.13867188 C180.49926556 -0.13550666 183.90684728 -0.15899542 187.31518555 -0.18432617 C189.47468966 -0.18659861 191.63419611 -0.18730292 193.79370117 -0.1862793 C194.8156105 -0.19548904 195.83751984 -0.20469879 196.89039612 -0.21418762 C197.83825485 -0.20795883 198.78611359 -0.20173004 199.76269531 -0.1953125 C201.0136776 -0.19625664 201.0136776 -0.19625664 202.28993225 -0.19721985 C204.44604492 0.17700195 204.44604492 0.17700195 206.27391052 1.45808411 C207.44604492 3.17700195 207.44604492 3.17700195 206.88354492 7.05200195 C206.42952463 8.76718971 205.94694502 10.47491425 205.44604492 12.17700195 C204.98584961 13.77801758 204.98584961 13.77801758 204.51635742 15.41137695 C203.19927024 19.84250746 201.89568467 24.16095495 200.02270508 28.39331055 C198.40080777 32.14723069 197.22804022 35.99488545 196.12182617 39.92700195 C195.68727363 41.43375245 195.2518569 42.94025392 194.81567383 44.4465332 C194.59155823 45.22335449 194.36744263 46.00017578 194.13653564 46.80053711 C192.2923403 53.14771204 190.36154401 59.46723778 188.38134766 65.77319336 C187.87921614 67.38729292 187.38616501 69.00424303 186.90185547 70.6237793 C180.82366392 90.90606523 180.82366392 90.90606523 170.80549622 96.70562744 C167.05847347 98.34675073 163.60325686 98.95943734 159.57641602 99.34790039 C158.41120202 99.46746408 158.41120202 99.46746408 157.22244835 99.58944321 C146.62392825 100.56825963 135.99358249 100.46514576 125.36010742 100.44262695 C123.08287515 100.44397822 120.80564316 100.44592257 118.52841187 100.44842529 C113.79015313 100.45135126 109.0519705 100.44715873 104.3137207 100.43774414 C98.2686697 100.42631181 92.22379563 100.43294914 86.17875099 100.44488907 C81.48935633 100.45214288 76.80000311 100.44980427 72.11060715 100.44463348 C69.8820735 100.44330876 67.65353597 100.44490297 65.42500687 100.44959259 C31.83551252 100.50482507 31.83551252 100.50482507 23.07055664 91.81298828 C17.77878232 85.63982595 15.57922548 78.0355734 13.08618164 70.44384766 C12.32918699 68.13928927 11.55187185 65.84245521 10.77026367 63.54614258 C7.96474588 55.22699836 5.51341758 46.88093113 3.31689453 38.38232422 C2.26492061 34.51034059 0.93507848 30.90159262 -0.55395508 27.17700195 C-1.65275511 24.18923838 -2.70174018 21.18575716 -3.74145508 18.17700195 C-4.0140918 17.42161133 -4.28672852 16.6662207 -4.56762695 15.88793945 C-6.3215395 10.77126225 -6.8304691 6.58438721 -6.55395508 1.17700195 C-4.16991966 -0.01501576 -2.66144391 0.03144508 0 0 Z " fill="#3F3021" transform="translate(149.553955078125,291.822998046875)"/>
<path d="M0 0 C4 0 4 0 6.75 2.375 C9 5 9 5 9 7 C8.01 7.33 7.02 7.66 6 8 C4.99403703 7.0479279 3.99538437 6.08812654 3 5.125 C2.443125 4.59132813 1.88625 4.05765625 1.3125 3.5078125 C0 2 0 2 0 0 Z " fill="#564839" transform="translate(116,258)"/>
<path d="M0 0 C1.3125 1.75 1.3125 1.75 2.3125 4.75 C1.3225 4.75 0.3325 4.75 -0.6875 4.75 C-0.6875 6.73 -0.6875 8.71 -0.6875 10.75 C-1.0175 10.75 -1.3475 10.75 -1.6875 10.75 C-1.790625 9.6775 -1.89375 8.605 -2 7.5 C-2.66150493 3.89179128 -3.26233421 2.38604977 -5.6875 -0.25 C-2.1493016 -1.59207526 -2.1493016 -1.59207526 0 0 Z " fill="#776B5B" transform="translate(277.6875,178.25)"/>
<path d="M0 0 C-0.33 1.98 -0.66 3.96 -1 6 C-2.32 6 -3.64 6 -5 6 C-5 4.68 -5 3.36 -5 2 C-5.66 1.67 -6.32 1.34 -7 1 C-4.53721199 -0.231394 -2.7204945 -0.07159196 0 0 Z " fill="#463729" transform="translate(200,217)"/>
<path d="M0 0 C0.33 0.99 0.66 1.98 1 3 C-0.9375 5.6875 -0.9375 5.6875 -3 8 C-3.33 6.02 -3.66 4.04 -4 2 C-2.68 1.34 -1.36 0.68 0 0 Z " fill="#57493B" transform="translate(164,348)"/>
<path d="M0 0 C1.98 0 3.96 0 6 0 C5.01 2.64 4.02 5.28 3 8 C0.37613513 4.93882432 0 4.26826873 0 0 Z " fill="#72685C" transform="translate(204,145)"/>
<path d="M0 0 C0.66 0.33 1.32 0.66 2 1 C0.87994369 4.36016893 -0.37211797 5.69064913 -3 8 C-3.66 8 -4.32 8 -5 8 C-3.8141763 4.62496331 -2.72426311 2.35277269 0 0 Z " fill="#756A5D" transform="translate(123,194)"/>
<path d="M0 0 C1.32 0.66 2.64 1.32 4 2 C2.02 3.32 0.04 4.64 -2 6 C-2.66 5.67 -3.32 5.34 -4 5 C-3.34 4.01 -2.68 3.02 -2 2 C-1.34 2 -0.68 2 0 2 C0 1.34 0 0.68 0 0 Z " fill="#685D50" transform="translate(128,188)"/>
<path d="M0 0 C0.99 1.32 1.98 2.64 3 4 C2.01 4.33 1.02 4.66 0 5 C-0.33 5.66 -0.66 6.32 -1 7 C-1.33 5.35 -1.66 3.7 -2 2 C-1.34 2 -0.68 2 0 2 C0 1.34 0 0.68 0 0 Z " fill="#64584B" transform="translate(169,370)"/>
<path d="M0 0 C0.66 0.33 1.32 0.66 2 1 C0.38405168 3.04119788 -1.2856382 5.04072937 -3 7 C-3.66 7 -4.32 7 -5 7 C-5 6.01 -5 5.02 -5 4 C-2.5 1.8125 -2.5 1.8125 0 0 Z " fill="#8B8371" transform="translate(187,130)"/>
<path d="M0 0 C0 0.66 0 1.32 0 2 C-2 3.625 -2 3.625 -4 5 C-5.32 4.34 -6.64 3.68 -8 3 C-2.25 0 -2.25 0 0 0 Z " fill="#67584B" transform="translate(209,118)"/>
</svg>
